<?xml version="1.0" encoding="UTF-8"?>
<svg xmlns="http://www.w3.org/2000/svg" xmlns:xlink="http://www.w3.org/1999/xlink" width="375pt" height="374.999991pt" viewBox="0 0 375 374.999991" version="1.2">
<defs>
<clipPath id="clip1">
  <path d="M 4 7.324219 L 371 7.324219 L 371 367.324219 L 4 367.324219 Z M 4 7.324219 "/>
</clipPath>
</defs>
<g id="surface1">
<path style=" stroke:none;fill-rule:nonzero;fill:rgb(1.568604%,2.349854%,2.349854%);fill-opacity:1;" d="M 86.824219 364.5 C 86.089844 364.5 85.382812 364.207031 84.867188 363.6875 C 84.347656 363.171875 84.058594 362.464844 84.0625 361.726562 C 84.070312 360.496094 84.675781 240.609375 78.707031 146.777344 L 59.625 174.839844 C 59.128906 175.566406 58.308594 176.019531 57.425781 176.046875 L 57.34375 176.046875 C 56.488281 176.046875 55.683594 175.652344 55.15625 174.972656 C 27.941406 139.742188 8.5625 121.382812 8.375 121.199219 C 7.359375 120.246094 7.21875 118.683594 8.042969 117.566406 L 64.804688 40.332031 C 65.320312 39.621094 66.148438 39.203125 67.027344 39.203125 C 67.324219 39.203125 67.617188 39.25 67.894531 39.34375 C 137.804688 10.035156 138.238281 10.042969 138.953125 10.042969 C 140.34375 10.042969 141.5 11.070312 141.691406 12.414062 C 144.226562 28.628906 160.425781 58.851562 188.113281 58.847656 C 212.917969 58.847656 225.15625 36.257812 234.6875 11.839844 C 235.074219 10.789062 236.089844 10.042969 237.277344 10.042969 C 238.058594 10.042969 238.386719 10.042969 308.046875 39.222656 C 308.144531 39.207031 308.246094 39.203125 308.347656 39.203125 C 309.207031 39.203125 310.019531 39.605469 310.539062 40.285156 C 311.265625 40.679688 311.75 41.371094 311.910156 42.148438 L 367.328125 117.566406 C 368.15625 118.683594 368.015625 120.246094 367.003906 121.199219 C 366.808594 121.382812 347.433594 139.742188 320.21875 174.972656 C 319.691406 175.652344 318.886719 176.046875 318.03125 176.046875 L 317.945312 176.046875 C 317.0625 176.019531 316.25 175.566406 315.746094 174.839844 L 297.449219 147.929688 C 291.558594 241.589844 292.164062 360.507812 292.167969 361.726562 C 292.171875 362.464844 291.882812 363.171875 291.363281 363.6875 C 290.847656 364.207031 290.144531 364.5 289.40625 364.5 L 86.824219 364.5 "/>
<g clip-path="url(#clip1)" clip-rule="nonzero">
<path style=" stroke:none;fill-rule:nonzero;fill:rgb(1.568604%,2.349854%,2.349854%);fill-opacity:1;" d="M 138.863281 7.285156 C 137.660156 7.285156 137.394531 7.394531 126.238281 12.007812 C 120.632812 14.328125 112.820312 17.578125 103.015625 21.667969 C 88.53125 27.714844 73.578125 33.972656 67.601562 36.480469 C 67.410156 36.457031 67.222656 36.449219 67.03125 36.449219 L 67.027344 36.449219 C 65.269531 36.449219 63.617188 37.285156 62.578125 38.699219 L 5.816406 115.933594 C 4.171875 118.175781 4.457031 121.296875 6.480469 123.203125 C 6.671875 123.378906 25.917969 141.632812 52.972656 176.65625 C 54.019531 178.011719 55.636719 178.800781 57.34375 178.800781 L 57.511719 178.796875 C 59.28125 178.742188 60.914062 177.847656 61.910156 176.386719 L 76.449219 155.003906 C 81.882812 247.40625 81.3125 360.515625 81.304688 361.714844 C 81.296875 363.179688 81.875 364.589844 82.90625 365.632812 C 83.941406 366.671875 85.351562 367.253906 86.824219 367.253906 L 289.40625 367.253906 C 290.878906 367.253906 292.289062 366.671875 293.324219 365.632812 C 294.355469 364.589844 294.933594 363.179688 294.925781 361.714844 C 294.921875 360.527344 294.351562 248.335938 299.714844 156.164062 L 313.46875 176.386719 C 314.457031 177.847656 316.097656 178.742188 317.863281 178.796875 L 318.03125 178.800781 C 319.742188 178.800781 321.359375 178.011719 322.402344 176.65625 C 349.457031 141.632812 368.707031 123.378906 368.894531 123.203125 C 370.921875 121.296875 371.203125 118.175781 369.554688 115.933594 L 314.417969 40.90625 C 314.050781 39.820312 313.335938 38.851562 312.355469 38.171875 C 311.371094 37.132812 310.011719 36.511719 308.574219 36.453125 C 302.355469 33.847656 286.621094 27.261719 271.726562 21.046875 C 238.742188 7.289062 238.742188 7.289062 237.300781 7.285156 L 237.277344 7.285156 C 234.894531 7.285156 232.863281 8.792969 232.089844 10.902344 C 222.917969 34.386719 211.238281 56.09375 188.113281 56.09375 C 162.121094 56.09375 146.851562 27.441406 144.417969 12.027344 C 144.042969 9.347656 141.738281 7.285156 138.953125 7.285156 Z M 138.953125 12.796875 L 138.957031 12.796875 C 141.839844 31.382812 159.367188 61.609375 188.113281 61.605469 C 216.863281 61.605469 229.59375 32.484375 237.273438 12.796875 L 237.277344 12.796875 C 237.828125 12.796875 299.289062 38.539062 308.136719 42.246094 L 308.347656 41.957031 L 308.746094 42.503906 C 309.046875 42.628906 309.203125 42.695312 309.203125 42.695312 L 309.09375 42.976562 L 365.105469 119.195312 C 365.105469 119.195312 345.726562 137.433594 318.03125 173.289062 L 295.21875 139.746094 C 288.6875 235.675781 289.40625 361.746094 289.40625 361.746094 L 86.824219 361.746094 C 86.824219 361.746094 87.546875 234.667969 80.933594 138.601562 L 57.34375 173.289062 C 29.644531 137.433594 10.265625 119.195312 10.265625 119.195312 L 67.027344 41.957031 L 67.4375 42.523438 C 73.199219 40.109375 138.386719 12.796875 138.953125 12.796875 "/>
</g>
<path style=" stroke:none;fill-rule:nonzero;fill:rgb(1.568604%,2.349854%,2.349854%);fill-opacity:1;" d="M 67.027344 41.957031 L 10.265625 119.195312 C 10.265625 119.195312 29.644531 137.433594 57.34375 173.289062 L 89.152344 126.515625 L 89.152344 72.105469 L 67.027344 41.957031 "/>
<path style=" stroke:none;fill-rule:nonzero;fill:rgb(95.689392%,95.289612%,94.898987%);fill-opacity:1;" d="M 67.027344 41.957031 L 66.582031 41.636719 L 9.535156 119.261719 L 9.886719 119.597656 C 9.886719 119.597656 10.183594 119.875 10.769531 120.445312 C 14.84375 124.410156 32.6875 142.277344 56.902344 173.625 L 57.371094 174.226562 L 89.703125 126.683594 L 89.703125 71.925781 L 67.027344 41.027344 L 66.582031 41.636719 L 67.027344 41.957031 L 66.582031 42.285156 L 88.597656 72.289062 L 88.597656 126.34375 L 56.886719 172.980469 L 57.34375 173.289062 L 57.777344 172.953125 C 30.0625 137.074219 10.664062 118.8125 10.648438 118.796875 L 10.265625 119.195312 L 10.710938 119.519531 L 67.472656 42.285156 L 67.027344 41.957031 L 66.582031 42.285156 L 67.027344 41.957031 "/>
<path style=" stroke:none;fill-rule:nonzero;fill:rgb(1.568604%,2.349854%,2.349854%);fill-opacity:1;" d="M 308.347656 41.957031 L 365.105469 119.195312 C 365.105469 119.195312 345.726562 137.433594 318.03125 173.289062 L 286.222656 126.515625 L 286.222656 72.105469 L 308.347656 41.957031 "/>
<path style=" stroke:none;fill-rule:nonzero;fill:rgb(95.689392%,95.289612%,94.898987%);fill-opacity:1;" d="M 308.347656 41.957031 L 307.90625 42.285156 L 364.660156 119.519531 L 365.105469 119.195312 L 364.726562 118.796875 C 364.707031 118.8125 345.3125 137.074219 317.59375 172.953125 L 318.03125 173.289062 L 318.488281 172.980469 L 286.773438 126.34375 L 286.773438 72.289062 L 308.792969 42.285156 L 308.347656 41.957031 L 307.90625 42.285156 L 308.347656 41.957031 L 307.90625 41.636719 L 285.667969 71.925781 L 285.667969 126.683594 L 318.003906 174.226562 L 318.46875 173.625 C 332.304688 155.714844 344.066406 142.199219 352.363281 133.167969 C 356.511719 128.652344 359.792969 125.257812 362.039062 122.992188 C 363.160156 121.859375 364.023438 121.007812 364.605469 120.445312 C 365.1875 119.875 365.484375 119.597656 365.484375 119.597656 L 365.835938 119.261719 L 308.347656 41.027344 L 307.90625 41.636719 L 308.347656 41.957031 "/>
<path style=" stroke:none;fill-rule:nonzero;fill:rgb(100%,8.628845%,8.628845%);fill-opacity:1;" d="M 67.027344 42.695312 C 67.027344 42.695312 138.957031 12.542969 138.957031 12.796875 C 141.839844 31.382812 159.367188 61.609375 188.113281 61.605469 C 216.863281 61.605469 229.59375 32.484375 237.273438 12.796875 C 237.273438 12.542969 309.203125 42.695312 309.203125 42.695312 C 287.890625 96.382812 289.40625 361.746094 289.40625 361.746094 L 86.824219 361.746094 C 86.824219 361.746094 88.339844 96.382812 67.027344 42.695312 "/>
<path style=" stroke:none;fill-rule:nonzero;fill:rgb(1.568604%,2.349854%,2.349854%);fill-opacity:1;" d="M 67.027344 42.695312 L 67.238281 43.203125 C 67.242188 43.203125 68.355469 42.734375 70.308594 41.914062 C 77.140625 39.058594 94.222656 31.902344 109.664062 25.464844 C 117.386719 22.246094 124.699219 19.207031 130.109375 16.972656 C 132.8125 15.851562 135.046875 14.941406 136.617188 14.300781 C 137.398438 13.984375 138.019531 13.734375 138.449219 13.566406 C 138.664062 13.484375 138.828125 13.421875 138.9375 13.382812 L 139.058594 13.339844 L 139.074219 13.335938 L 138.957031 12.886719 L 138.957031 13.347656 C 139.0625 13.34375 139.058594 13.335938 139.074219 13.335938 L 138.957031 12.886719 L 138.957031 13.347656 L 138.957031 12.796875 L 138.410156 12.882812 C 139.875 22.289062 145.011719 34.554688 153.414062 44.523438 C 161.816406 54.484375 173.535156 62.15625 188.113281 62.15625 C 202.6875 62.160156 213.234375 54.746094 221.027344 44.925781 C 228.828125 35.101562 233.945312 22.851562 237.785156 12.992188 L 237.273438 12.796875 L 237.273438 13.347656 L 237.273438 12.898438 L 237.152344 13.335938 C 237.164062 13.335938 237.152344 13.34375 237.273438 13.347656 L 237.273438 12.898438 L 237.152344 13.335938 C 237.15625 13.335938 237.28125 13.378906 237.460938 13.441406 C 240.253906 14.503906 258.15625 21.953125 275.332031 29.121094 C 283.921875 32.707031 292.339844 36.230469 298.605469 38.851562 C 301.738281 40.164062 304.335938 41.253906 306.148438 42.011719 C 307.960938 42.773438 308.992188 43.203125 308.992188 43.203125 L 309.203125 42.695312 L 308.691406 42.492188 C 303.984375 54.355469 300.425781 76.246094 297.691406 103.296875 C 289.484375 184.414062 288.832031 311.714844 288.832031 350.296875 C 288.832031 357.621094 288.855469 361.746094 288.855469 361.75 L 289.40625 361.746094 L 289.40625 361.195312 L 86.824219 361.195312 L 86.824219 361.746094 L 87.375 361.75 C 87.375 361.746094 87.394531 357.621094 87.394531 350.296875 C 87.394531 324.578125 87.109375 259.421875 84.480469 194.8125 C 83.171875 162.503906 81.277344 130.335938 78.542969 103.296875 C 75.804688 76.246094 72.246094 54.355469 67.539062 42.492188 L 67.027344 42.695312 L 67.238281 43.203125 L 67.027344 42.695312 L 66.515625 42.898438 C 71.136719 54.527344 74.71875 76.40625 77.445312 103.40625 C 85.636719 184.425781 86.292969 311.738281 86.292969 350.296875 C 86.292969 353.960938 86.289062 356.820312 86.285156 358.765625 C 86.273438 360.710938 86.269531 361.742188 86.269531 361.742188 L 86.265625 362.296875 L 289.964844 362.296875 L 289.960938 361.742188 C 289.960938 361.742188 289.953125 360.710938 289.949219 358.765625 C 289.941406 356.816406 289.9375 353.953125 289.9375 350.296875 C 289.9375 324.585938 290.226562 259.441406 292.847656 194.855469 C 294.164062 162.5625 296.054688 130.414062 298.785156 103.40625 C 301.515625 76.40625 305.09375 54.53125 309.714844 42.898438 L 309.917969 42.394531 L 309.417969 42.1875 C 309.417969 42.1875 291.585938 34.710938 273.671875 27.238281 C 264.722656 23.5 255.75 19.761719 248.976562 16.957031 C 245.589844 15.554688 242.753906 14.386719 240.746094 13.570312 C 239.738281 13.160156 238.941406 12.839844 238.382812 12.621094 C 238.101562 12.507812 237.882812 12.425781 237.726562 12.367188 L 237.527344 12.296875 L 237.445312 12.269531 C 237.40625 12.261719 237.402344 12.25 237.273438 12.246094 L 236.894531 12.246094 L 236.761719 12.597656 C 232.925781 22.429688 227.835938 34.582031 220.164062 44.238281 C 212.480469 53.898438 202.289062 61.046875 188.113281 61.050781 C 173.945312 61.050781 162.527344 53.609375 154.257812 43.8125 C 145.992188 34.023438 140.921875 21.886719 139.5 12.710938 L 139.429688 12.246094 L 138.957031 12.246094 C 138.828125 12.25 138.820312 12.261719 138.785156 12.269531 C 138.679688 12.296875 138.570312 12.339844 138.378906 12.414062 C 135.527344 13.492188 117.65625 20.929688 100.46875 28.105469 C 83.289062 35.28125 66.8125 42.1875 66.8125 42.1875 L 66.316406 42.394531 L 66.515625 42.898438 L 67.027344 42.695312 "/>
<path style=" stroke:none;fill-rule:nonzero;fill:rgb(95.689392%,95.289612%,94.898987%);fill-opacity:1;" d="M 100.660156 360.695312 L 100.660156 39.058594 L 120.160156 39.058594 L 120.160156 360.695312 Z M 100.660156 360.695312 "/>
<path style=" stroke:none;fill-rule:nonzero;fill:rgb(95.689392%,95.289612%,94.898987%);fill-opacity:1;" d="M 139.363281 360.699219 L 139.363281 70.558594 L 158.863281 70.558594 L 158.863281 360.699219 Z M 139.363281 360.699219 "/>
<path style=" stroke:none;fill-rule:nonzero;fill:rgb(95.689392%,95.289612%,94.898987%);fill-opacity:1;" d="M 177.746094 360.699219 L 177.746094 70.558594 L 197.246094 70.558594 L 197.246094 360.699219 Z M 177.746094 360.699219 "/>
<path style=" stroke:none;fill-rule:nonzero;fill:rgb(95.689392%,95.289612%,94.898987%);fill-opacity:1;" d="M 216.515625 360.699219 L 216.515625 70.558594 L 236.015625 70.558594 L 236.015625 360.699219 Z M 216.515625 360.699219 "/>
<path style=" stroke:none;fill-rule:nonzero;fill:rgb(95.689392%,95.289612%,94.898987%);fill-opacity:1;" d="M 256.011719 360.691406 L 256.011719 37.558594 L 275.511719 37.558594 L 275.511719 360.691406 Z M 256.011719 360.691406 "/>
</g>
</svg>
